HIERARCHY
ROOT Hips
{
 OFFSET 0.000000 0.000000 0.000000
 CHANNELS 6 Xposition Yposition Zposition Yrotation Xrotation Zrotation
 JOINT Chest
 {
  OFFSET 0.000000 12.953391 -0.028419
  CHANNELS 3 Yrotation Xrotation Zrotation
  JOINT Chest2
  {
   OFFSET 0.000000 10.280254 0.051622
   CHANNELS 3 Yrotation Xrotation Zrotation
   JOINT Chest3
   {
    OFFSET 0.000000 9.287180 0.000000
    CHANNELS 3 Yrotation Xrotation Zrotation
    JOINT Chest4
    {
     OFFSET 0.000000 9.287180 0.000000
     CHANNELS 3 Yrotation Xrotation Zrotation
     JOINT Neck
     {
      OFFSET 0.000000 13.296264 0.000000
      CHANNELS 3 Yrotation Xrotation Zrotation
      JOINT Head
      {
       OFFSET 0.000000 8.959264 0.099003
       CHANNELS 3 Yrotation Xrotation Zrotation
       End Site
       {
        OFFSET 0.000000 17.121337 0.039303
       }
      }
     }
     JOINT RightCollar
     {
      OFFSET -3.193511 7.451388 0.000000
      CHANNELS 3 Yrotation Xrotation Zrotation
      JOINT RightShoulder
      {
       OFFSET -15.792092 0.000000 0.000000
       CHANNELS 3 Yrotation Xrotation Zrotation
       JOINT RightElbow
       {
        OFFSET -31.151839 0.000000 0.000000
        CHANNELS 3 Yrotation Xrotation Zrotation
        JOINT RightWrist
        {
         OFFSET -25.536298 0.000000 0.002321
         CHANNELS 3 Yrotation Xrotation Zrotation
         End Site
         {
          OFFSET -19.133213 0.000000 0.000000
         }
        }
       }
      }
     }
     JOINT LeftCollar
     {
      OFFSET 3.193511 7.451388 0.000000
      CHANNELS 3 Yrotation Xrotation Zrotation
      JOINT LeftShoulder
      {
       OFFSET 15.792092 0.000000 0.000000
       CHANNELS 3 Yrotation Xrotation Zrotation
       JOINT LeftElbow
       {
        OFFSET 31.151839 0.000000 0.000000
        CHANNELS 3 Yrotation Xrotation Zrotation
        JOINT LeftWrist
        {
         OFFSET 25.536298 0.000000 0.002321
         CHANNELS 3 Yrotation Xrotation Zrotation
         End Site
         {
          OFFSET 19.133213 0.000000 0.000000
         }
        }
       }
      }
     }
    }
   }
  }
 }
 JOINT RightHip
 {
  OFFSET -10.745749 0.139252 0.014209
  CHANNELS 3 Yrotation Xrotation Zrotation
  JOINT RightKnee
  {
   OFFSET 0.000000 -43.743899 -0.006071
   CHANNELS 3 Yrotation Xrotation Zrotation
   JOINT RightAnkle
   {
    OFFSET 0.000000 -43.214199 0.089931
    CHANNELS 3 Yrotation Xrotation Zrotation
    JOINT RightToe
    {
     OFFSET 0.000000 -9.699830 19.151588
     CHANNELS 3 Yrotation Xrotation Zrotation
     End Site
     {
      OFFSET 0.000000 -1.292898 4.893873
     }
    }
   }
  }
 }
 JOINT LeftHip
 {
  OFFSET 10.745749 0.139252 0.014209
  CHANNELS 3 Yrotation Xrotation Zrotation
  JOINT LeftKnee
  {
   OFFSET 0.000000 -43.743899 -0.006071
   CHANNELS 3 Yrotation Xrotation Zrotation
   JOINT LeftAnkle
   {
    OFFSET 0.000000 -43.214199 0.089931
    CHANNELS 3 Yrotation Xrotation Zrotation
    JOINT LeftToe
    {
     OFFSET 0.000000 -9.699830 19.151588
     CHANNELS 3 Yrotation Xrotation Zrotation
     End Site
     {
      OFFSET 0.000000 -1.292898 4.893873
     }
    }
   }
  }
 }
}
MOTION
Frames: 5
Frame Time: 0.016667
-40.733050 95.399715 -52.673415 37.283230 -1.236267 -6.001951 0.385291 6.878193 0.210878 0.167853 3.057431 0.087834 0.167890 3.057618 0.087835 0.125472 2.293366 0.065020 3.895871 18.412414 -0.082544 7.184294 -1.897010 -1.428629 4.236608 -2.770584 7.267261 -10.810163 20.601722 45.265469 95.324207 11.693250 40.581651 27.670816 29.683380 3.395700 -2.989912 -0.643860 -3.649319 3.682759 16.484974 -49.457859 -112.798050 32.699983 -59.120767 -11.859371 20.912923 30.613739 -15.672539 -18.200479 0.810278 6.880378 31.668665 -0.998696 0.327235 -3.259287 2.638827 -0.435001 -8.558779 5.783355 9.046329 -24.570564 0.708047 5.183392 61.724022 8.910421 -11.512963 -0.007915 -4.797203 -2.613183 -29.023967 13.172910
-41.121001 95.854693 -53.729368 34.998312 -1.606717 -5.899860 0.206613 6.856722 0.237892 0.088138 3.047537 0.102477 0.088138 3.047537 0.102477 0.065576 2.285668 0.076400 3.918651 18.650422 -0.098569 7.222361 -1.452958 -1.451905 4.109361 -2.631137 7.286200 -10.938135 20.204827 45.335041 95.796785 11.980464 40.516382 27.899525 29.453666 4.223903 -3.153911 0.126292 -3.653159 3.370530 16.196817 -49.528027 -112.264360 32.532609 -58.621680 -11.607569 20.830676 31.019286 -14.728964 -18.326664 0.321015 6.242344 29.616638 -0.653213 2.653551 -0.389975 2.972009 -0.351390 -8.761483 4.584440 9.161567 -22.502267 0.191973 2.237974 61.196651 6.337684 -14.431913 0.963738 -6.699927 -2.652819 -26.802759 17.815177
-41.499899 96.328987 -54.914317 32.415523 -1.820500 -5.726096 0.199903 6.786773 0.240137 0.085069 3.016256 0.103619 0.085011 3.016132 0.103631 0.063195 2.262030 0.077294 3.910009 18.912320 -0.097014 7.197480 -0.967277 -1.432296 4.046235 -2.505718 7.324841 -11.225122 19.616761 45.130461 96.532388 12.300343 41.007423 27.874753 29.020395 4.549681 -3.232440 0.614778 -3.681173 3.470678 15.763491 -49.357660 -112.377821 32.301720 -58.693664 -11.452033 20.681118 31.138070 -14.347669 -18.961331 -0.022482 5.541424 27.658871 -0.455237 5.953735 3.323279 3.752380 -0.254261 -9.375607 2.916613 8.794380 -20.684983 -0.238360 -0.014483 59.855543 3.853388 -17.071399 2.720658 -7.725150 -2.373117 -25.166474 21.583792
-41.866135 96.820225 -56.209107 29.675379 -1.921721 -5.528731 0.293931 6.695712 0.241229 0.126810 2.975936 0.102796 0.126745 2.975875 0.102811 0.094496 2.231886 0.076486 3.873476 19.168492 -0.092665 7.120635 -0.494275 -1.399093 4.051072 -2.392298 7.367255 -11.563186 18.933724 44.763106 97.406890 12.594867 41.796724 27.678484 28.452381 4.568879 -3.292013 0.948316 -3.726770 3.839904 15.243278 -49.043930 -112.834268 32.015467 -59.070557 -11.338382 20.516784 31.113803 -14.197018 -19.876735 -0.307672 4.675874 25.726916 -0.268753 9.848701 7.450162 5.064092 -0.132795 -9.881972 0.898782 8.183897 -19.015326 -0.667678 -1.694901 57.809309 1.653282 -19.420231 4.741500 -8.305285 -1.903112 -23.656089 24.568279
-42.270241 97.210537 -57.557718 26.982822 -1.977192 -5.404501 0.419344 6.638055 0.274957 0.182114 2.950493 0.115984 0.182114 2.950493 0.115984 0.135995 2.212905 0.086089 3.810641 19.317787 -0.100275 7.001208 -0.219844 -1.384172 4.131085 -2.312789 7.404189 -11.938493 18.382312 44.283194 98.096394 12.580899 42.576035 27.365808 27.974960 4.291640 -3.421485 1.077587 -3.785753 4.293039 14.864027 -48.697944 -113.274130 31.671121 -59.442766 -11.141897 20.465748 31.105927 -14.245101 -20.701194 -0.423722 4.093755 23.961160 -0.041148 13.463483 10.532584 7.214107 0.027216 -9.295080 -0.502374 7.802790 -17.498458 -1.070573 -2.592771 55.449044 0.209558 -20.295332 5.500802 -7.682844 -1.815456 -22.891898 25.324802
